<?xml version="1.0" encoding="utf-8"?>
<!-- Generator: Adobe Illustrator 19.2.1, SVG Export Plug-In . SVG Version: 6.00 Build 0)  -->
<svg version="1.1" xmlns="http://www.w3.org/2000/svg" xmlns:xlink="http://www.w3.org/1999/xlink" x="0px" y="0px"
	 viewBox="0 0 595.3 841.9" style="enable-background:new 0 0 595.3 841.9;" xml:space="preserve">
<style type="text/css">
	.st0{opacity:0.31;fill:#FFFFFF;stroke:#7B7E80;stroke-width:4;stroke-linejoin:round;}
	.st1{fill:none;stroke:#EDB018;stroke-width:4;stroke-dasharray:3.2166,3.2166;}
</style>
<g id="svg629" xmlns:cc="http://web.resource.org/cc/" xmlns:dc="http://purl.org/dc/elements/1.1/" xmlns:rdf="http://www.w3.org/1999/02/22-rdf-syntax-ns#" xmlns:svg="http://www.w3.org/2000/svg">
	<path id="path633" class="st0" d="M215.1,180.3l5.7-0.9l-0.9,6.6l5.7,4.7l1.9,5.7l-3.8,8.5l-0.9,8.5l3.8,11.4l8.5,5.7l11.4-1.9
		l14.2-6.6l16.1,2.8l-1.9-7.6l9.5-1.9l2.8-2.8l11.4,6.6l7.6-1.9l10.4,0.9l7.6-8.5l0.9-6.6l10.4-10.4l8.5,9.5l0.9,12.3l5.7,11.4
		l6.6,2.8l-5.7,10.4l-9.5,9.5l-3.8,4.7l0.9,8.5h5.7l3.8-11.4h12.3l14.2,0.9v6.6l-2.8,6.6l-6.6,4.7l9.5-1.9l4.7-8.5l10.4-1.9
		l22.8,8.5l5.7,5.7l6.6-1.9l3.8,7.6v6.6l2.8,2.8l10.4-3.8l11.4,3.8l15.2,3.8l17.1-0.9l19.9,13.3l9.5,8.5l12.3,9.5l16.1,4.7L552,336
		l2.8,16.1l-3.8,17.1l-13.3,15.2l-8.5,8.5l-11.4,13.3l-8.5,14.2l-9.5,3.8l-5.7,7.6l0.9,10.4v14.2l-2.8,17.1l-4.7,15.2l-7.6,11.4
		l0.9,9.5l-10.4,12.3l-7.6,11.4v9.5l-11.4,5.7l-2.8,3.8v1.9l-9.5,0.9l-13.3-2.8l-6.6,3.8l-6.6,0.9l-5.7,3.8l-2.8,3.8h-7.6
		l-14.2,10.4l-7.6,7.6l-7.6,4.7l-2.8,13.3l1.9,9.5l-2.8,12.3l-9.5,9.5l-6.6,13.3l-12.3,19l-10.4,5.7l-7.6,11.4l-4.7,9.5l-4.7,0.9
		l-1.9-8.5l5.7-5.7l-5.7-5.7l-3.8-3.8l-15.2-9.5l-1.9-5.7l-5.7,3.8l-9.5-11.4h-7.6l2.8-5.7l14.2-16.1l16.1-13.3l8.5-5.7l1.9-12.3
		l-3.8-6.6l-6.6-1.9l3.8-14.2l-3.8-8.5l-9.5,2.8l-4.7-21.8l-10.4-2.8l-16.1,0.9l0.9-15.2l-4.7-13.3l7.6-22.8l-3.8-9.5l-7.6-5.7
		v-10.4h-23.7l-3.8-14.2l2.8-2.8l-1.9-13.3c0,0-9.5-6.6-11.4-6.6c-1.9,0-19-3.8-19-3.8l-11.4-9.5c0,0-5.7,2.8-9.5,0.9
		c-3.8-1.9-14.2-15.2-14.2-15.2v-19.9l-18,4.7l-8.5,10.4h-8.5l-8.5,7.6l-15.2-2.8l-4.7,1.9l-5.7-5.7l0.9-15.2l-7.6,7.6H65.1
		l-1.9-6.6l-10.4-0.9l2.8-5.7l-15.2-18l2.8-9.5l9.5-3.8l-1.9-6.6l1.9-12.3l24.7-14.2l11.4,2.8l10.4-42.7l-3.8-10.4l-7.6-3.8l1.9-9.5
		l11.4-1.9l-3.8-5.7h-4.7v-6.6l21.8-5.7l2.8,4.7l7.6-7.6l4.7,10.4l8.5,6.6l12.3-2.8l18-8.5l8.5-7.6l-3.8-4.7l-8.5-11.4l-4.7-10.4
		l12.3,3.8l11.4,2.8l6.6-7.6l15.2-4.7L215.1,180.3L215.1,180.3z"/>
	<g>
		<circle class="st1" cx="438.1" cy="543.5" r="6.2"/>
	</g>
</g>
<g id="Layer_2">
</g>
</svg>
